# xmcd
#
# Track frame offsets: 
#        150
#        15645
#        29787
#        46755
#        62412
#        78010
#        93780
#        107005
#        125762
#        141072
#        156547
#        171632
#        187537
#        211702
#        229530
#        246695
#
# Disc length: 3556 seconds
#
# Revision: 2
# Processed by: cddbd v1.5.2PL0 Copyright (c) Steve Scherf et al.
# Submitted via: ExactAudioCopy v1.0b1
#
DISCID=cf0de210
DTITLE=Diana Ross - All The Great Love Songs
DYEAR=1984
DGENRE=
TTITLE0=You're All I Need To Get By
TTITLE1=These Things Will Keep Me Loving You
TTITLE2=I'm Still Waiting
TTITLE3=My Man (Mon Homme)
TTITLE4=Touch Me In The Morning
TTITLE5=All Of My Life
TTITLE6=Love Me
TTITLE7=After You
TTITLE8=Theme From Mahogony (Do You Know Where You're Going To)
TTITLE9=Sorry Doesn't Always Make It Right
TTITLE10=I Thought It Took A Little Time (But Today I Fell In Love)
TTITLE11=All Night Lover
TTITLE12=Sparkle
TTITLE13=It's My Turn
TTITLE14=Cryin' My Heart Out For You
TTITLE15=Endless Love With Lionel Richie
EXTD=
EXTT0=
EXTT1=
EXTT2=
EXTT3=
EXTT4=
EXTT5=
EXTT6=
EXTT7=
EXTT8=
EXTT9=
EXTT10=
EXTT11=
EXTT12=
EXTT13=
EXTT14=
EXTT15=
PLAYORDER=
